<?xml version="1.0" encoding="iso-8859-1"?>
<!-- Generator: Adobe Illustrator 16.0.0, SVG Export Plug-In . SVG Version: 6.00 Build 0)  -->
<!DOCTYPE svg PUBLIC "-//W3C//DTD SVG 1.1//EN" "http://www.w3.org/Graphics/SVG/1.1/DTD/svg11.dtd">
<svg version="1.1" id="Capa_1" xmlns="http://www.w3.org/2000/svg" xmlns:xlink="http://www.w3.org/1999/xlink" x="0px" y="0px"
	 width="612px" height="612px" viewBox="0 0 612 612" style="enable-background:new 0 0 612 612;" xml:space="preserve">
<g>
	<path d="M602.522,355.83l-203.217-34.852c-8.672-37.774-39.63-66.941-78.324-73.034l-9.31-69.334
		c-0.377-2.804-2.77-4.896-5.599-4.896h-0.146c-2.829,0-5.221,2.093-5.598,4.896l-9.311,69.334
		c-38.693,6.092-69.651,35.26-78.324,73.034L9.478,355.83C4.032,356.64,0,361.316,0,366.823v0.208
		c0,6.139,4.976,11.114,11.114,11.114h44.014c-0.506,2.64-0.792,5.356-0.792,8.143c0,23.796,19.29,43.087,43.086,43.087
		c23.796,0,43.086-19.291,43.086-43.087c0-2.787-0.288-5.503-0.792-8.143h77.408c14.157,35.233,48.582,60.14,88.877,60.14
		c40.296,0,74.721-24.906,88.878-60.14h77.407c-0.506,2.64-0.793,5.356-0.793,8.143c0,23.796,19.29,43.087,43.087,43.087
		c23.796,0,43.086-19.291,43.086-43.087c0-2.787-0.287-5.503-0.792-8.143h44.013c6.139,0,11.114-4.976,11.114-11.114v-0.208
		C612,361.316,607.969,356.64,602.522,355.83z M255.534,322.019l11.891-24.64h77.151l11.891,24.64H255.534z"/>
</g>
<g>
</g>
<g>
</g>
<g>
</g>
<g>
</g>
<g>
</g>
<g>
</g>
<g>
</g>
<g>
</g>
<g>
</g>
<g>
</g>
<g>
</g>
<g>
</g>
<g>
</g>
<g>
</g>
<g>
</g>
</svg>
