<?xml version="1.0" encoding="iso-8859-1"?>
<!-- Generator: Adobe Illustrator 16.0.0, SVG Export Plug-In . SVG Version: 6.00 Build 0)  -->
<!DOCTYPE svg PUBLIC "-//W3C//DTD SVG 1.1//EN" "http://www.w3.org/Graphics/SVG/1.1/DTD/svg11.dtd">
<svg version="1.1" id="Capa_1" xmlns="http://www.w3.org/2000/svg" xmlns:xlink="http://www.w3.org/1999/xlink" x="0px" y="0px"
	 width="469.633px" height="469.633px" viewBox="0 0 469.633 469.633" style="enable-background:new 0 0 469.633 469.633;"
	 xml:space="preserve">
<g>
	<path d="M450.066,0v19.91h-44.5V0h-341.5v19.91h-44.5V0H0v469.633h19.566v-21.26h44.5v21.26h341.5v-21.26h44.5v21.26h19.566V0
		H450.066z M64.066,396.635h-44.5v-42.443h44.5V396.635z M64.066,302.454h-44.5v-42.443h44.5V302.454z M64.066,208.273h-44.5V165.83
		h44.5V208.273z M64.066,114.091h-44.5V71.648h44.5V114.091z M365.568,54.063v149.819H104.063V54.063H365.568z M104.063,415.568
		V265.75h261.505v149.818H104.063z M450.066,396.635h-44.5v-42.443h44.5V396.635z M450.066,302.454h-44.5v-42.443h44.5V302.454z
		 M450.066,208.273h-44.5V165.83h44.5V208.273z M450.066,114.091h-44.5V71.648h44.5V114.091z"/>
</g>
<g>
</g>
<g>
</g>
<g>
</g>
<g>
</g>
<g>
</g>
<g>
</g>
<g>
</g>
<g>
</g>
<g>
</g>
<g>
</g>
<g>
</g>
<g>
</g>
<g>
</g>
<g>
</g>
<g>
</g>
</svg>
